<svg width="3200" height="3200" xmlns="http://www.w3.org/2000/svg">
<rect x="0" y="0" width="200" height="200" fill="rgb(255,255,255)"/>
<rect x="200" y="0" width="200" height="200" fill="rgb(255,255,255)"/>
<rect x="400" y="0" width="200" height="200" fill="rgb(255,255,255)"/>
<rect x="600" y="0" width="200" height="200" fill="rgb(255,255,255)"/>
<rect x="800" y="0" width="200" height="200" fill="rgb(0,0,0)"/>
<rect x="1000" y="0" width="200" height="200" fill="rgb(0,0,0)"/>
<rect x="1200" y="0" width="200" height="200" fill="rgb(0,0,0)"/>
<rect x="1400" y="0" width="200" height="200" fill="rgb(0,0,0)"/>
<rect x="1600" y="0" width="200" height="200" fill="rgb(255,255,255)"/>
<rect x="1800" y="0" width="200" height="200" fill="rgb(255,255,255)"/>
<rect x="2000" y="0" width="200" height="200" fill="rgb(255,255,255)"/>
<rect x="2200" y="0" width="200" height="200" fill="rgb(255,255,255)"/>
<rect x="2400" y="0" width="200" height="200" fill="rgb(0,0,0)"/>
<rect x="2600" y="0" width="200" height="200" fill="rgb(0,0,0)"/>
<rect x="2800" y="0" width="200" height="200" fill="rgb(0,0,0)"/>
<rect x="3000" y="0" width="200" height="200" fill="rgb(0,0,0)"/>
<rect x="0" y="200" width="200" height="200" fill="rgb(255,255,255)"/>
<rect x="200" y="200" width="200" height="200" fill="rgb(255,255,255)"/>
<rect x="400" y="200" width="200" height="200" fill="rgb(255,255,255)"/>
<rect x="600" y="200" width="200" height="200" fill="rgb(255,255,255)"/>
<rect x="800" y="200" width="200" height="200" fill="rgb(0,0,0)"/>
<rect x="1000" y="200" width="200" height="200" fill="rgb(0,0,0)"/>
<rect x="1200" y="200" width="200" height="200" fill="rgb(0,0,0)"/>
<rect x="1400" y="200" width="200" height="200" fill="rgb(0,0,0)"/>
<rect x="1600" y="200" width="200" height="200" fill="rgb(255,255,255)"/>
<rect x="1800" y="200" width="200" height="200" fill="rgb(255,255,255)"/>
<rect x="2000" y="200" width="200" height="200" fill="rgb(255,255,255)"/>
<rect x="2200" y="200" width="200" height="200" fill="rgb(255,255,255)"/>
<rect x="2400" y="200" width="200" height="200" fill="rgb(0,0,0)"/>
<rect x="2600" y="200" width="200" height="200" fill="rgb(0,0,0)"/>
<rect x="2800" y="200" width="200" height="200" fill="rgb(0,0,0)"/>
<rect x="3000" y="200" width="200" height="200" fill="rgb(0,0,0)"/>
<rect x="0" y="400" width="200" height="200" fill="rgb(255,255,255)"/>
<rect x="200" y="400" width="200" height="200" fill="rgb(255,255,255)"/>
<rect x="400" y="400" width="200" height="200" fill="rgb(255,255,255)"/>
<rect x="600" y="400" width="200" height="200" fill="rgb(255,255,255)"/>
<rect x="800" y="400" width="200" height="200" fill="rgb(0,0,0)"/>
<rect x="1000" y="400" width="200" height="200" fill="rgb(0,0,0)"/>
<rect x="1200" y="400" width="200" height="200" fill="rgb(0,0,0)"/>
<rect x="1400" y="400" width="200" height="200" fill="rgb(0,0,0)"/>
<rect x="1600" y="400" width="200" height="200" fill="rgb(255,255,255)"/>
<rect x="1800" y="400" width="200" height="200" fill="rgb(255,255,255)"/>
<rect x="2000" y="400" width="200" height="200" fill="rgb(255,255,255)"/>
<rect x="2200" y="400" width="200" height="200" fill="rgb(255,255,255)"/>
<rect x="2400" y="400" width="200" height="200" fill="rgb(0,0,0)"/>
<rect x="2600" y="400" width="200" height="200" fill="rgb(0,0,0)"/>
<rect x="2800" y="400" width="200" height="200" fill="rgb(0,0,0)"/>
<rect x="3000" y="400" width="200" height="200" fill="rgb(0,0,0)"/>
<rect x="0" y="600" width="200" height="200" fill="rgb(255,255,255)"/>
<rect x="200" y="600" width="200" height="200" fill="rgb(255,255,255)"/>
<rect x="400" y="600" width="200" height="200" fill="rgb(255,255,255)"/>
<rect x="600" y="600" width="200" height="200" fill="rgb(255,255,255)"/>
<rect x="800" y="600" width="200" height="200" fill="rgb(0,0,0)"/>
<rect x="1000" y="600" width="200" height="200" fill="rgb(0,0,0)"/>
<rect x="1200" y="600" width="200" height="200" fill="rgb(0,0,0)"/>
<rect x="1400" y="600" width="200" height="200" fill="rgb(0,0,0)"/>
<rect x="1600" y="600" width="200" height="200" fill="rgb(255,255,255)"/>
<rect x="1800" y="600" width="200" height="200" fill="rgb(255,255,255)"/>
<rect x="2000" y="600" width="200" height="200" fill="rgb(255,255,255)"/>
<rect x="2200" y="600" width="200" height="200" fill="rgb(255,255,255)"/>
<rect x="2400" y="600" width="200" height="200" fill="rgb(0,0,0)"/>
<rect x="2600" y="600" width="200" height="200" fill="rgb(0,0,0)"/>
<rect x="2800" y="600" width="200" height="200" fill="rgb(0,0,0)"/>
<rect x="3000" y="600" width="200" height="200" fill="rgb(0,0,0)"/>
<rect x="0" y="800" width="200" height="200" fill="rgb(0,0,0)"/>
<rect x="200" y="800" width="200" height="200" fill="rgb(0,0,0)"/>
<rect x="400" y="800" width="200" height="200" fill="rgb(0,0,0)"/>
<rect x="600" y="800" width="200" height="200" fill="rgb(0,0,0)"/>
<rect x="800" y="800" width="200" height="200" fill="rgb(255,255,255)"/>
<rect x="1000" y="800" width="200" height="200" fill="rgb(255,255,255)"/>
<rect x="1200" y="800" width="200" height="200" fill="rgb(255,255,255)"/>
<rect x="1400" y="800" width="200" height="200" fill="rgb(255,255,255)"/>
<rect x="1600" y="800" width="200" height="200" fill="rgb(0,0,0)"/>
<rect x="1800" y="800" width="200" height="200" fill="rgb(0,0,0)"/>
<rect x="2000" y="800" width="200" height="200" fill="rgb(0,0,0)"/>
<rect x="2200" y="800" width="200" height="200" fill="rgb(0,0,0)"/>
<rect x="2400" y="800" width="200" height="200" fill="rgb(255,255,255)"/>
<rect x="2600" y="800" width="200" height="200" fill="rgb(255,255,255)"/>
<rect x="2800" y="800" width="200" height="200" fill="rgb(255,255,255)"/>
<rect x="3000" y="800" width="200" height="200" fill="rgb(255,255,255)"/>
<rect x="0" y="1000" width="200" height="200" fill="rgb(0,0,0)"/>
<rect x="200" y="1000" width="200" height="200" fill="rgb(0,0,0)"/>
<rect x="400" y="1000" width="200" height="200" fill="rgb(0,0,0)"/>
<rect x="600" y="1000" width="200" height="200" fill="rgb(0,0,0)"/>
<rect x="800" y="1000" width="200" height="200" fill="rgb(255,255,255)"/>
<rect x="1000" y="1000" width="200" height="200" fill="rgb(255,255,255)"/>
<rect x="1200" y="1000" width="200" height="200" fill="rgb(255,255,255)"/>
<rect x="1400" y="1000" width="200" height="200" fill="rgb(255,255,255)"/>
<rect x="1600" y="1000" width="200" height="200" fill="rgb(0,0,0)"/>
<rect x="1800" y="1000" width="200" height="200" fill="rgb(0,0,0)"/>
<rect x="2000" y="1000" width="200" height="200" fill="rgb(0,0,0)"/>
<rect x="2200" y="1000" width="200" height="200" fill="rgb(0,0,0)"/>
<rect x="2400" y="1000" width="200" height="200" fill="rgb(255,255,255)"/>
<rect x="2600" y="1000" width="200" height="200" fill="rgb(255,255,255)"/>
<rect x="2800" y="1000" width="200" height="200" fill="rgb(255,255,255)"/>
<rect x="3000" y="1000" width="200" height="200" fill="rgb(255,255,255)"/>
<rect x="0" y="1200" width="200" height="200" fill="rgb(0,0,0)"/>
<rect x="200" y="1200" width="200" height="200" fill="rgb(0,0,0)"/>
<rect x="400" y="1200" width="200" height="200" fill="rgb(0,0,0)"/>
<rect x="600" y="1200" width="200" height="200" fill="rgb(0,0,0)"/>
<rect x="800" y="1200" width="200" height="200" fill="rgb(255,255,255)"/>
<rect x="1000" y="1200" width="200" height="200" fill="rgb(255,255,255)"/>
<rect x="1200" y="1200" width="200" height="200" fill="rgb(255,255,255)"/>
<rect x="1400" y="1200" width="200" height="200" fill="rgb(255,255,255)"/>
<rect x="1600" y="1200" width="200" height="200" fill="rgb(0,0,0)"/>
<rect x="1800" y="1200" width="200" height="200" fill="rgb(0,0,0)"/>
<rect x="2000" y="1200" width="200" height="200" fill="rgb(0,0,0)"/>
<rect x="2200" y="1200" width="200" height="200" fill="rgb(0,0,0)"/>
<rect x="2400" y="1200" width="200" height="200" fill="rgb(255,255,255)"/>
<rect x="2600" y="1200" width="200" height="200" fill="rgb(255,255,255)"/>
<rect x="2800" y="1200" width="200" height="200" fill="rgb(255,255,255)"/>
<rect x="3000" y="1200" width="200" height="200" fill="rgb(255,255,255)"/>
<rect x="0" y="1400" width="200" height="200" fill="rgb(0,0,0)"/>
<rect x="200" y="1400" width="200" height="200" fill="rgb(0,0,0)"/>
<rect x="400" y="1400" width="200" height="200" fill="rgb(0,0,0)"/>
<rect x="600" y="1400" width="200" height="200" fill="rgb(0,0,0)"/>
<rect x="800" y="1400" width="200" height="200" fill="rgb(255,255,255)"/>
<rect x="1000" y="1400" width="200" height="200" fill="rgb(255,255,255)"/>
<rect x="1200" y="1400" width="200" height="200" fill="rgb(255,255,255)"/>
<rect x="1400" y="1400" width="200" height="200" fill="rgb(255,255,255)"/>
<rect x="1600" y="1400" width="200" height="200" fill="rgb(0,0,0)"/>
<rect x="1800" y="1400" width="200" height="200" fill="rgb(0,0,0)"/>
<rect x="2000" y="1400" width="200" height="200" fill="rgb(0,0,0)"/>
<rect x="2200" y="1400" width="200" height="200" fill="rgb(0,0,0)"/>
<rect x="2400" y="1400" width="200" height="200" fill="rgb(255,255,255)"/>
<rect x="2600" y="1400" width="200" height="200" fill="rgb(255,255,255)"/>
<rect x="2800" y="1400" width="200" height="200" fill="rgb(255,255,255)"/>
<rect x="3000" y="1400" width="200" height="200" fill="rgb(255,255,255)"/>
<rect x="0" y="1600" width="200" height="200" fill="rgb(255,255,255)"/>
<rect x="200" y="1600" width="200" height="200" fill="rgb(255,255,255)"/>
<rect x="400" y="1600" width="200" height="200" fill="rgb(255,255,255)"/>
<rect x="600" y="1600" width="200" height="200" fill="rgb(255,255,255)"/>
<rect x="800" y="1600" width="200" height="200" fill="rgb(0,0,0)"/>
<rect x="1000" y="1600" width="200" height="200" fill="rgb(0,0,0)"/>
<rect x="1200" y="1600" width="200" height="200" fill="rgb(0,0,0)"/>
<rect x="1400" y="1600" width="200" height="200" fill="rgb(0,0,0)"/>
<rect x="1600" y="1600" width="200" height="200" fill="rgb(255,255,255)"/>
<rect x="1800" y="1600" width="200" height="200" fill="rgb(255,255,255)"/>
<rect x="2000" y="1600" width="200" height="200" fill="rgb(255,255,255)"/>
<rect x="2200" y="1600" width="200" height="200" fill="rgb(255,255,255)"/>
<rect x="2400" y="1600" width="200" height="200" fill="rgb(0,0,0)"/>
<rect x="2600" y="1600" width="200" height="200" fill="rgb(0,0,0)"/>
<rect x="2800" y="1600" width="200" height="200" fill="rgb(0,0,0)"/>
<rect x="3000" y="1600" width="200" height="200" fill="rgb(0,0,0)"/>
<rect x="0" y="1800" width="200" height="200" fill="rgb(255,255,255)"/>
<rect x="200" y="1800" width="200" height="200" fill="rgb(255,255,255)"/>
<rect x="400" y="1800" width="200" height="200" fill="rgb(255,255,255)"/>
<rect x="600" y="1800" width="200" height="200" fill="rgb(255,255,255)"/>
<rect x="800" y="1800" width="200" height="200" fill="rgb(0,0,0)"/>
<rect x="1000" y="1800" width="200" height="200" fill="rgb(0,0,0)"/>
<rect x="1200" y="1800" width="200" height="200" fill="rgb(0,0,0)"/>
<rect x="1400" y="1800" width="200" height="200" fill="rgb(0,0,0)"/>
<rect x="1600" y="1800" width="200" height="200" fill="rgb(255,255,255)"/>
<rect x="1800" y="1800" width="200" height="200" fill="rgb(255,255,255)"/>
<rect x="2000" y="1800" width="200" height="200" fill="rgb(255,255,255)"/>
<rect x="2200" y="1800" width="200" height="200" fill="rgb(255,255,255)"/>
<rect x="2400" y="1800" width="200" height="200" fill="rgb(0,0,0)"/>
<rect x="2600" y="1800" width="200" height="200" fill="rgb(0,0,0)"/>
<rect x="2800" y="1800" width="200" height="200" fill="rgb(0,0,0)"/>
<rect x="3000" y="1800" width="200" height="200" fill="rgb(0,0,0)"/>
<rect x="0" y="2000" width="200" height="200" fill="rgb(255,255,255)"/>
<rect x="200" y="2000" width="200" height="200" fill="rgb(255,255,255)"/>
<rect x="400" y="2000" width="200" height="200" fill="rgb(255,255,255)"/>
<rect x="600" y="2000" width="200" height="200" fill="rgb(255,255,255)"/>
<rect x="800" y="2000" width="200" height="200" fill="rgb(0,0,0)"/>
<rect x="1000" y="2000" width="200" height="200" fill="rgb(0,0,0)"/>
<rect x="1200" y="2000" width="200" height="200" fill="rgb(0,0,0)"/>
<rect x="1400" y="2000" width="200" height="200" fill="rgb(0,0,0)"/>
<rect x="1600" y="2000" width="200" height="200" fill="rgb(255,255,255)"/>
<rect x="1800" y="2000" width="200" height="200" fill="rgb(255,255,255)"/>
<rect x="2000" y="2000" width="200" height="200" fill="rgb(255,255,255)"/>
<rect x="2200" y="2000" width="200" height="200" fill="rgb(255,255,255)"/>
<rect x="2400" y="2000" width="200" height="200" fill="rgb(0,0,0)"/>
<rect x="2600" y="2000" width="200" height="200" fill="rgb(0,0,0)"/>
<rect x="2800" y="2000" width="200" height="200" fill="rgb(0,0,0)"/>
<rect x="3000" y="2000" width="200" height="200" fill="rgb(0,0,0)"/>
<rect x="0" y="2200" width="200" height="200" fill="rgb(255,255,255)"/>
<rect x="200" y="2200" width="200" height="200" fill="rgb(255,255,255)"/>
<rect x="400" y="2200" width="200" height="200" fill="rgb(255,255,255)"/>
<rect x="600" y="2200" width="200" height="200" fill="rgb(255,255,255)"/>
<rect x="800" y="2200" width="200" height="200" fill="rgb(0,0,0)"/>
<rect x="1000" y="2200" width="200" height="200" fill="rgb(0,0,0)"/>
<rect x="1200" y="2200" width="200" height="200" fill="rgb(0,0,0)"/>
<rect x="1400" y="2200" width="200" height="200" fill="rgb(0,0,0)"/>
<rect x="1600" y="2200" width="200" height="200" fill="rgb(255,255,255)"/>
<rect x="1800" y="2200" width="200" height="200" fill="rgb(255,255,255)"/>
<rect x="2000" y="2200" width="200" height="200" fill="rgb(255,255,255)"/>
<rect x="2200" y="2200" width="200" height="200" fill="rgb(255,255,255)"/>
<rect x="2400" y="2200" width="200" height="200" fill="rgb(0,0,0)"/>
<rect x="2600" y="2200" width="200" height="200" fill="rgb(0,0,0)"/>
<rect x="2800" y="2200" width="200" height="200" fill="rgb(0,0,0)"/>
<rect x="3000" y="2200" width="200" height="200" fill="rgb(0,0,0)"/>
<rect x="0" y="2400" width="200" height="200" fill="rgb(0,0,0)"/>
<rect x="200" y="2400" width="200" height="200" fill="rgb(0,0,0)"/>
<rect x="400" y="2400" width="200" height="200" fill="rgb(0,0,0)"/>
<rect x="600" y="2400" width="200" height="200" fill="rgb(0,0,0)"/>
<rect x="800" y="2400" width="200" height="200" fill="rgb(255,255,255)"/>
<rect x="1000" y="2400" width="200" height="200" fill="rgb(255,255,255)"/>
<rect x="1200" y="2400" width="200" height="200" fill="rgb(255,255,255)"/>
<rect x="1400" y="2400" width="200" height="200" fill="rgb(255,255,255)"/>
<rect x="1600" y="2400" width="200" height="200" fill="rgb(0,0,0)"/>
<rect x="1800" y="2400" width="200" height="200" fill="rgb(0,0,0)"/>
<rect x="2000" y="2400" width="200" height="200" fill="rgb(0,0,0)"/>
<rect x="2200" y="2400" width="200" height="200" fill="rgb(0,0,0)"/>
<rect x="2400" y="2400" width="200" height="200" fill="rgb(255,255,255)"/>
<rect x="2600" y="2400" width="200" height="200" fill="rgb(255,255,255)"/>
<rect x="2800" y="2400" width="200" height="200" fill="rgb(255,255,255)"/>
<rect x="3000" y="2400" width="200" height="200" fill="rgb(255,255,255)"/>
<rect x="0" y="2600" width="200" height="200" fill="rgb(0,0,0)"/>
<rect x="200" y="2600" width="200" height="200" fill="rgb(0,0,0)"/>
<rect x="400" y="2600" width="200" height="200" fill="rgb(0,0,0)"/>
<rect x="600" y="2600" width="200" height="200" fill="rgb(0,0,0)"/>
<rect x="800" y="2600" width="200" height="200" fill="rgb(255,255,255)"/>
<rect x="1000" y="2600" width="200" height="200" fill="rgb(255,255,255)"/>
<rect x="1200" y="2600" width="200" height="200" fill="rgb(255,255,255)"/>
<rect x="1400" y="2600" width="200" height="200" fill="rgb(255,255,255)"/>
<rect x="1600" y="2600" width="200" height="200" fill="rgb(0,0,0)"/>
<rect x="1800" y="2600" width="200" height="200" fill="rgb(0,0,0)"/>
<rect x="2000" y="2600" width="200" height="200" fill="rgb(0,0,0)"/>
<rect x="2200" y="2600" width="200" height="200" fill="rgb(0,0,0)"/>
<rect x="2400" y="2600" width="200" height="200" fill="rgb(255,255,255)"/>
<rect x="2600" y="2600" width="200" height="200" fill="rgb(255,255,255)"/>
<rect x="2800" y="2600" width="200" height="200" fill="rgb(255,255,255)"/>
<rect x="3000" y="2600" width="200" height="200" fill="rgb(255,255,255)"/>
<rect x="0" y="2800" width="200" height="200" fill="rgb(0,0,0)"/>
<rect x="200" y="2800" width="200" height="200" fill="rgb(0,0,0)"/>
<rect x="400" y="2800" width="200" height="200" fill="rgb(0,0,0)"/>
<rect x="600" y="2800" width="200" height="200" fill="rgb(0,0,0)"/>
<rect x="800" y="2800" width="200" height="200" fill="rgb(255,255,255)"/>
<rect x="1000" y="2800" width="200" height="200" fill="rgb(255,255,255)"/>
<rect x="1200" y="2800" width="200" height="200" fill="rgb(255,255,255)"/>
<rect x="1400" y="2800" width="200" height="200" fill="rgb(255,255,255)"/>
<rect x="1600" y="2800" width="200" height="200" fill="rgb(0,0,0)"/>
<rect x="1800" y="2800" width="200" height="200" fill="rgb(0,0,0)"/>
<rect x="2000" y="2800" width="200" height="200" fill="rgb(0,0,0)"/>
<rect x="2200" y="2800" width="200" height="200" fill="rgb(0,0,0)"/>
<rect x="2400" y="2800" width="200" height="200" fill="rgb(255,255,255)"/>
<rect x="2600" y="2800" width="200" height="200" fill="rgb(255,255,255)"/>
<rect x="2800" y="2800" width="200" height="200" fill="rgb(255,255,255)"/>
<rect x="3000" y="2800" width="200" height="200" fill="rgb(255,255,255)"/>
<rect x="0" y="3000" width="200" height="200" fill="rgb(0,0,0)"/>
<rect x="200" y="3000" width="200" height="200" fill="rgb(0,0,0)"/>
<rect x="400" y="3000" width="200" height="200" fill="rgb(0,0,0)"/>
<rect x="600" y="3000" width="200" height="200" fill="rgb(0,0,0)"/>
<rect x="800" y="3000" width="200" height="200" fill="rgb(255,255,255)"/>
<rect x="1000" y="3000" width="200" height="200" fill="rgb(255,255,255)"/>
<rect x="1200" y="3000" width="200" height="200" fill="rgb(255,255,255)"/>
<rect x="1400" y="3000" width="200" height="200" fill="rgb(255,255,255)"/>
<rect x="1600" y="3000" width="200" height="200" fill="rgb(0,0,0)"/>
<rect x="1800" y="3000" width="200" height="200" fill="rgb(0,0,0)"/>
<rect x="2000" y="3000" width="200" height="200" fill="rgb(0,0,0)"/>
<rect x="2200" y="3000" width="200" height="200" fill="rgb(0,0,0)"/>
<rect x="2400" y="3000" width="200" height="200" fill="rgb(255,255,255)"/>
<rect x="2600" y="3000" width="200" height="200" fill="rgb(255,255,255)"/>
<rect x="2800" y="3000" width="200" height="200" fill="rgb(255,255,255)"/>
<rect x="3000" y="3000" width="200" height="200" fill="rgb(255,255,255)"/>
</svg>
